<?xml version="1.0" encoding="utf-8"?>
<!-- Generator: Adobe Illustrator 13.0.0, SVG Export Plug-In . SVG Version: 6.00 Build 14948)  -->
<!DOCTYPE svg PUBLIC "-//W3C//DTD SVG 1.0//EN" "http://www.w3.org/TR/2001/REC-SVG-20010904/DTD/svg10.dtd">
<svg version="1.0" xmlns="http://www.w3.org/2000/svg" xmlns:xlink="http://www.w3.org/1999/xlink" x="0px" y="0px"
	 width="177.44727px" height="26.45801px" viewBox="0 0 177.44727 26.45801" enable-background="new 0 0 177.44727 26.45801"
	 xml:space="preserve">
<g id="BoundingBox">
	<rect fill="none" width="177.44727" height="26.45801"/>
</g>
<g id="HTWK">
	<path d="M43.5083,0.12988v4.66846h-6.74072v19.88428h-5.57324V4.79834h-6.74121V0.12988H43.5083z M50.79639,24.68262h6.854
		l2.29688-11.14697c0.41406-1.8833,0.7168-3.87891,1.0166-5.68652h0.15137c0.26416,1.80762,0.56445,3.80322,0.979,5.68652
		l2.41064,11.14697h6.96582l4.36865-24.55371h-5.30957l-1.69482,11.48633c-0.33887,2.52246-0.67822,5.12207-1.01709,7.75684
		h-0.15088c-0.48926-2.63477-0.97852-5.27148-1.46875-7.75684L63.5625,0.12891h-4.70703l-2.63574,11.48633
		c-0.49023,2.56055-0.97852,5.15918-1.46875,7.75684h-0.15137c-0.30127-2.59766-0.67725-5.19629-0.97852-7.75684L51.92676,0.12891
		h-5.68652L50.79639,24.68262z M79.60449,24.68262h5.57373V14.51758h2.63232l6.17871,10.16504h6.06348L92.4209,11.99268
		l5.89551-11.86377h-5.53027l-5.01758,9.86328h-2.59033V0.12891h-5.57373V24.68262z M15.73975,24.68262h5.57324V0.12891h-3.56592
		h-2.00732V24.68262z M0.05273,24.68262h5.57324V0.12988H3.40625H0.05273V24.68262z M7.40527,13.19189h6.55664v-2.38916h-3.85938
		H7.40527V13.19189z"/>
</g>
<g id="Claim_en_rechts">
	<path d="M112.3291,10.00977h0.63867v4.50195h2.20898v0.54688h-2.84766V10.00977z M115.74316,13.19629
		c0-1.22412,0.82324-1.96973,1.67773-1.96973c0.9541,0,1.49219,0.68359,1.49219,1.75391c0,0.13086-0.00684,0.26953-0.02344,0.36133
		h-2.52441c0.04688,0.79297,0.53223,1.2998,1.24707,1.2998c0.35449,0,0.65527-0.11523,0.93164-0.29102l0.22266,0.41406
		c-0.32324,0.20801-0.72266,0.38477-1.23047,0.38477C116.53613,15.14941,115.74316,14.41895,115.74316,13.19629z
		 M118.35938,12.88818c0-0.75439-0.33887-1.16162-0.92285-1.16162c-0.52441,0-1.00195,0.42334-1.07812,1.16162H118.35938z
		 M119.96191,10.14111c0-0.24609,0.19238-0.40771,0.43945-0.40771c0.24609,0,0.4375,0.16162,0.4375,0.40771
		c0,0.23779-0.19141,0.40723-0.4375,0.40723C120.1543,10.54834,119.96191,10.37891,119.96191,10.14111z M120.07812,11.31836h0.30566
		h0.32422v3.74023h-0.62988V11.31836z M122.19434,11.31836h0.52344l0.05469,0.43066h0.02344
		c0.33789-0.28467,0.75391-0.52246,1.19238-0.52246c0.96191,0,1.47754,0.74561,1.47754,1.9082
		c0,1.26953-0.7627,2.01465-1.61621,2.01465c-0.34668,0-0.69336-0.16113-1.03906-0.42969l0.01465,0.6543v1.26172h-0.63086V11.31836z
		 M124.81152,13.13477c0-0.82324-0.27734-1.37793-0.98535-1.37793c-0.31543,0-0.62988,0.17773-1.00098,0.50879v1.96191
		c0.33887,0.28418,0.66992,0.39258,0.91699,0.39258C124.35742,14.62012,124.81152,14.05664,124.81152,13.13477z M126.16406,14.71973
		l1.96973-2.88574h-1.75391v-0.51562h2.55469v0.33887l-1.9707,2.88477h2.03223v0.5166h-2.83203V14.71973z M130.02051,10.14111
		c0-0.24609,0.19238-0.40771,0.43848-0.40771c0.24512,0,0.43848,0.16162,0.43848,0.40771c0,0.23779-0.19336,0.40723-0.43848,0.40723
		C130.21289,10.54834,130.02051,10.37891,130.02051,10.14111z M130.13574,11.31836h0.38281h0.24805v3.74023h-0.63086V11.31836z
		 M131.9502,15.77441c0-0.31641,0.20703-0.61523,0.54688-0.84766v-0.03027c-0.18457-0.11523-0.33105-0.31543-0.33105-0.60742
		c0-0.31543,0.21484-0.56299,0.40723-0.69336v-0.03125c-0.24609-0.19873-0.48438-0.56152-0.48438-1.00732
		c0-0.81592,0.64648-1.33057,1.4082-1.33057c0.20801,0,0.39258,0.03809,0.53125,0.0918h1.30078v0.48438h-0.76953
		c0.17578,0.16943,0.30664,0.45508,0.30664,0.76953c0,0.80078-0.60742,1.30078-1.36914,1.30078
		c-0.18555,0-0.39258-0.04688-0.56152-0.13086c-0.13086,0.11523-0.23926,0.23828-0.23926,0.44629
		c0,0.23828,0.1543,0.40723,0.66211,0.40723h0.72363c0.86914,0,1.30762,0.26953,1.30762,0.89355
		c0,0.69141-0.73047,1.29199-1.89258,1.29199C132.58105,16.78125,131.9502,16.4209,131.9502,15.77441z M134.77441,15.58105
		c0-0.3457-0.26953-0.46094-0.75391-0.46094h-0.64648c-0.14648,0-0.32324-0.01562-0.48438-0.06152
		c-0.27051,0.19141-0.38477,0.41504-0.38477,0.62988c0,0.40137,0.40723,0.6543,1.08496,0.6543
		C134.30566,16.34277,134.77441,15.97363,134.77441,15.58105z M134.29004,12.55713c0-0.54639-0.35449-0.86963-0.79297-0.86963
		s-0.79297,0.32324-0.79297,0.86963s0.36133,0.89209,0.79297,0.89209C133.92773,13.44922,134.29004,13.10352,134.29004,12.55713z
		 M138.15527,12.97314v-2.96338h0.63867v2.97852c0,1.21582,0.5166,1.60059,1.17773,1.60059
		c0.66992,0,1.19336-0.38477,1.19336-1.60059v-2.97852h0.61523v2.96338c0,1.62256-0.77734,2.17627-1.80859,2.17627
		S138.15527,14.5957,138.15527,12.97314z M143.11426,11.31836h0.52344l0.05469,0.53809h0.02344
		c0.35352-0.35352,0.73828-0.62988,1.25391-0.62988c0.78516,0,1.13867,0.50781,1.13867,1.46094v2.37109h-0.63086v-2.28613
		c0-0.7002-0.21484-1-0.70801-1c-0.38477,0-0.64648,0.19971-1.02344,0.57715v2.70898h-0.63184V11.31836z M147.38867,10.14111
		c0-0.24609,0.19238-0.40771,0.43848-0.40771s0.43848,0.16162,0.43848,0.40771c0,0.23779-0.19238,0.40723-0.43848,0.40723
		S147.38867,10.37891,147.38867,10.14111z M147.50488,11.31836h0.30859h0.32129v3.74023h-0.62988V11.31836z M149.11621,11.31836
		h0.65527l0.70703,2.12305c0.1084,0.37012,0.23145,0.74707,0.34668,1.10059h0.03125
		c0.10742-0.35352,0.23047-0.73047,0.33789-1.10059l0.70801-2.12305h0.62402l-1.32324,3.74023h-0.73926L149.11621,11.31836z
		 M153.0918,13.19629c0-1.22412,0.82324-1.96973,1.67773-1.96973c0.9541,0,1.49316,0.68359,1.49316,1.75391
		c0,0.13086-0.00781,0.26953-0.02344,0.36133h-2.52441c0.0459,0.79297,0.53027,1.2998,1.24707,1.2998
		c0.35352,0,0.65332-0.11523,0.93066-0.29102l0.22363,0.41406c-0.32324,0.20801-0.72363,0.38477-1.23145,0.38477
		C153.88477,15.14941,153.0918,14.41895,153.0918,13.19629z M155.70801,12.88818c0-0.75439-0.33887-1.16162-0.92285-1.16162
		c-0.52344,0-1.00098,0.42334-1.07812,1.16162H155.70801z M157.41895,11.31836h0.52246l0.05371,0.67773h0.02344
		c0.25391-0.47021,0.63867-0.76953,1.0625-0.76953c0.16113,0,0.27637,0.02246,0.39941,0.07617l-0.12305,0.55371
		c-0.12305-0.03809-0.20801-0.06104-0.36133-0.06104c-0.31543,0-0.69238,0.23047-0.94727,0.86182v2.40137h-0.62988V11.31836z
		 M159.90625,14.63477l0.31445-0.42383c0.32324,0.2627,0.65527,0.44629,1.10156,0.44629c0.49219,0,0.73828-0.26074,0.73828-0.58398
		c0-0.38477-0.44629-0.55371-0.85449-0.70752c-0.53027-0.19336-1.11523-0.44629-1.11523-1.07812
		c0-0.6001,0.47656-1.06104,1.28516-1.06104c0.46875,0,0.87695,0.19141,1.16113,0.42285l-0.2998,0.40039
		c-0.25391-0.19336-0.52344-0.33105-0.85352-0.33105c-0.46973,0-0.68555,0.25342-0.68555,0.53906
		c0,0.35352,0.4082,0.4834,0.83105,0.64502c0.53906,0.20068,1.13867,0.42383,1.13867,1.13135
		c0,0.60742-0.48535,1.11523-1.36914,1.11523C160.76758,15.14941,160.25977,14.92676,159.90625,14.63477z M163.60254,10.14111
		c0-0.24609,0.19238-0.40771,0.43945-0.40771c0.24512,0,0.4375,0.16162,0.4375,0.40771c0,0.23779-0.19238,0.40723-0.4375,0.40723
		C163.79492,10.54834,163.60254,10.37891,163.60254,10.14111z M163.71777,11.31836h0.32129h0.30957v3.74023h-0.63086V11.31836z
		 M165.9502,13.9043v-2.07031h-0.55371v-0.47754l0.58496-0.03809l0.07617-1.04688h0.53125v1.04688h1.00781v0.51562h-1.00781v2.07715
		c0,0.46191,0.14648,0.72363,0.57715,0.72363c0.13086,0,0.2998-0.05371,0.42285-0.10059l0.12402,0.47754
		c-0.20801,0.06934-0.46191,0.1377-0.69238,0.1377C166.21973,15.14941,165.9502,14.6416,165.9502,13.9043z M168.29883,16.58984
		l0.12305-0.5c0.07715,0.02246,0.19238,0.05371,0.28516,0.05371c0.42383,0,0.69238-0.33984,0.8457-0.80078l0.08398-0.27734
		l-1.5-3.74707h0.65527l0.76074,2.06934c0.11621,0.32324,0.24609,0.70801,0.36133,1.05566h0.03125
		c0.1084-0.33984,0.21582-0.72461,0.31543-1.05566l0.66992-2.06934h0.61523l-1.40723,4.04688
		c-0.26172,0.73926-0.64746,1.30078-1.40137,1.30078C168.56836,16.66602,168.42188,16.63574,168.29883,16.58984z
		 M111.99023,22.82031c0-1.25488,0.81543-1.96973,1.73145-1.96973s1.73145,0.71484,1.73145,1.96973
		c0,1.23828-0.81543,1.9541-1.73145,1.9541S111.99023,24.05859,111.99023,22.82031z M114.79883,22.82031
		c0-0.8623-0.43066-1.44727-1.07715-1.44727c-0.63867,0-1.07812,0.58496-1.07812,1.44727c0,0.85352,0.43945,1.43066,1.07812,1.43066
		C114.36816,24.25098,114.79883,23.67383,114.79883,22.82031z M116.7793,21.45801h-0.50781v-0.47754l0.50781-0.03809v-0.5918
		c0-0.76172,0.3457-1.24023,1.09277-1.24023c0.22949,0,0.45312,0.05469,0.62305,0.12305l-0.13867,0.48535
		c-0.13867-0.06152-0.28516-0.09277-0.42383-0.09277c-0.35352,0-0.52344,0.24707-0.52344,0.72461v0.5918h0.79297v0.51562h-0.79297
		v3.22461h-0.62988V21.45801z M122.02051,19.63477h0.72461l1.70801,5.04785h-0.68457l-0.47656-1.53906h-1.83984l-0.48438,1.53906
		h-0.6543L122.02051,19.63477z M121.61328,22.62695h1.5166l-0.23828-0.76855c-0.18555-0.5625-0.34668-1.11621-0.50879-1.70117
		h-0.03027c-0.1543,0.58496-0.31543,1.13867-0.5,1.70117L121.61328,22.62695z M125.33984,20.94238h0.52441l0.05273,0.43066h0.02344
		c0.33887-0.28418,0.75391-0.52246,1.19336-0.52246c0.96191,0,1.47656,0.74609,1.47656,1.9082
		c0,1.26953-0.76074,2.01562-1.61523,2.01562c-0.34668,0-0.69336-0.16211-1.03906-0.42969l0.01562,0.65332v1.26172h-0.63184
		V20.94238z M127.95703,22.75879c0-0.82324-0.27734-1.37891-0.98535-1.37891c-0.31543,0-0.63086,0.17773-1,0.50977v1.96191
		c0.33789,0.28418,0.66895,0.39258,0.91602,0.39258C127.50293,24.24414,127.95703,23.68066,127.95703,22.75879z M129.74707,20.94238
		h0.52344l0.05371,0.43066h0.02246c0.33887-0.28418,0.75488-0.52246,1.19336-0.52246c0.96289,0,1.47754,0.74609,1.47754,1.9082
		c0,1.26953-0.76172,2.01562-1.61523,2.01562c-0.34668,0-0.69336-0.16211-1.03906-0.42969l0.01465,0.65332v1.26172h-0.63086
		V20.94238z M132.36426,22.75879c0-0.82324-0.27734-1.37891-0.98535-1.37891c-0.31543,0-0.63184,0.17773-1.00098,0.50977v1.96191
		c0.33789,0.28418,0.66992,0.39258,0.91602,0.39258C131.90918,24.24414,132.36426,23.68066,132.36426,22.75879z M134.25098,23.92871
		V19.2041h0.63086v4.77051c0,0.19922,0.08398,0.27637,0.17773,0.27637c0.03711,0,0.06836,0,0.13867-0.01465l0.08398,0.47656
		c-0.08398,0.03809-0.19238,0.06152-0.36133,0.06152C134.44336,24.77441,134.25098,24.47461,134.25098,23.92871z
		 M136.33008,19.76465c0-0.24609,0.19238-0.4082,0.43848-0.4082s0.43848,0.16211,0.43848,0.4082
		c0,0.23828-0.19238,0.4082-0.43848,0.4082S136.33008,20.00293,136.33008,19.76465z M136.44434,20.94238h0.41016h0.22168v3.74023
		h-0.63184V20.94238z M138.29297,22.82031c0-1.22363,0.82324-1.96973,1.67676-1.96973c0.95508,0,1.49316,0.68359,1.49316,1.75391
		c0,0.13086-0.00781,0.26953-0.02246,0.36133h-2.52344c0.04492,0.79297,0.53027,1.30078,1.24609,1.30078
		c0.35352,0,0.65332-0.11523,0.93066-0.29199l0.22363,0.41504c-0.32324,0.20703-0.72363,0.38477-1.23145,0.38477
		C139.08496,24.77441,138.29297,24.04395,138.29297,22.82031z M140.90918,22.5127c0-0.75488-0.33789-1.16211-0.92383-1.16211
		c-0.52246,0-1,0.42383-1.07715,1.16211H140.90918z M142.29688,22.82031c0-1.21582,0.76953-1.96973,1.62402-1.96973
		c0.43066,0,0.71484,0.16113,1.04688,0.43066l-0.03125-0.63965v-1.4375h0.63867v5.47852h-0.52344l-0.05371-0.43848h-0.02344
		c-0.29199,0.28418-0.69238,0.53027-1.13086,0.53027C142.9043,24.77441,142.29688,24.06738,142.29688,22.82031z M144.93652,23.72754
		v-1.95312c-0.31543-0.28613-0.60059-0.39453-0.9082-0.39453c-0.59961,0-1.07812,0.57812-1.07812,1.43359
		c0,0.8916,0.37793,1.43066,1.03223,1.43066C144.32812,24.24414,144.62793,24.0752,144.93652,23.72754z M148.5332,24.02832
		l0.38379-0.44629c0.3623,0.37793,0.87012,0.63086,1.39355,0.63086c0.66113,0,1.05371-0.33105,1.05371-0.82324
		c0-0.51562-0.36133-0.67676-0.83789-0.89258l-0.72461-0.31641c-0.47656-0.2002-1.02246-0.56055-1.02246-1.2998
		c0-0.77051,0.66895-1.33887,1.58496-1.33887c0.60059,0,1.13086,0.25293,1.49219,0.62305l-0.3457,0.41602
		c-0.30762-0.29297-0.67676-0.47754-1.14648-0.47754c-0.5625,0-0.93945,0.28418-0.93945,0.73926
		c0,0.4834,0.43848,0.66895,0.83887,0.83789l0.71582,0.30859c0.58496,0.25391,1.03906,0.60059,1.03906,1.3457
		c0,0.80078-0.6543,1.43945-1.71484,1.43945C149.59473,24.77441,148.97168,24.48242,148.5332,24.02832z M152.75391,22.82031
		c0-1.25488,0.83887-1.96973,1.80176-1.96973c0.49219,0,0.83008,0.19922,1.0918,0.43848l-0.32324,0.41504
		c-0.21484-0.19238-0.44629-0.33105-0.74609-0.33105c-0.67773,0-1.16992,0.58496-1.16992,1.44727
		c0,0.85352,0.46973,1.43066,1.1543,1.43066c0.34668,0,0.64648-0.16895,0.87695-0.37695l0.27734,0.42383
		c-0.33887,0.29883-0.7627,0.47656-1.20801,0.47656C153.5166,24.77441,152.75391,24.05859,152.75391,22.82031z M156.57422,19.76465
		c0-0.24609,0.19238-0.4082,0.43848-0.4082s0.43848,0.16211,0.43848,0.4082c0,0.23828-0.19238,0.4082-0.43848,0.4082
		S156.57422,20.00293,156.57422,19.76465z M156.68848,20.94238h0.30664h0.3252v3.74023h-0.63184V20.94238z M158.53809,22.82031
		c0-1.22363,0.82227-1.96973,1.67676-1.96973c0.9541,0,1.49316,0.68359,1.49316,1.75391c0,0.13086-0.00781,0.26953-0.02344,0.36133
		h-2.52344c0.04492,0.79297,0.53027,1.30078,1.24609,1.30078c0.35352,0,0.6543-0.11523,0.93164-0.29199l0.22266,0.41504
		c-0.32324,0.20703-0.72363,0.38477-1.23145,0.38477C159.33008,24.77441,158.53809,24.04395,158.53809,22.82031z M161.15332,22.5127
		c0-0.75488-0.33887-1.16211-0.92285-1.16211c-0.52246,0-1.00098,0.42383-1.07715,1.16211H161.15332z M162.84863,20.94238h0.52344
		l0.05371,0.53809h0.02246c0.35352-0.35352,0.73926-0.62988,1.25488-0.62988c0.78418,0,1.1377,0.50684,1.1377,1.46094v2.37109
		h-0.62988v-2.28613c0-0.7002-0.21484-1-0.70801-1c-0.38477,0-0.64648,0.2002-1.02344,0.57617v2.70996h-0.63086V20.94238z
		 M166.97656,22.82031c0-1.25488,0.83887-1.96973,1.80176-1.96973c0.49121,0,0.83008,0.19922,1.0918,0.43848l-0.32324,0.41504
		c-0.21484-0.19238-0.44629-0.33105-0.74609-0.33105c-0.67773,0-1.16992,0.58496-1.16992,1.44727
		c0,0.85352,0.46973,1.43066,1.1543,1.43066c0.34668,0,0.64648-0.16895,0.87695-0.37695l0.27734,0.42383
		c-0.33887,0.29883-0.76172,0.47656-1.20801,0.47656C167.73926,24.77441,166.97656,24.05859,166.97656,22.82031z
		 M170.63379,22.82031c0-1.22363,0.82324-1.96973,1.67773-1.96973c0.9541,0,1.49219,0.68359,1.49219,1.75391
		c0,0.13086-0.00684,0.26953-0.02344,0.36133h-2.52344c0.04492,0.79297,0.53027,1.30078,1.24609,1.30078
		c0.35449,0,0.6543-0.11523,0.93164-0.29199l0.22266,0.41504c-0.32324,0.20703-0.72363,0.38477-1.23145,0.38477
		C171.42676,24.77441,170.63379,24.04395,170.63379,22.82031z M173.25,22.5127c0-0.75488-0.33887-1.16211-0.92383-1.16211
		c-0.52246,0-1.00098,0.42383-1.07715,1.16211H173.25z M174.54395,24.25879l0.31543-0.42383
		c0.32324,0.26172,0.6543,0.44629,1.10156,0.44629c0.49121,0,0.73828-0.26074,0.73828-0.58398
		c0-0.38477-0.44727-0.55371-0.85449-0.70801c-0.53125-0.19336-1.11523-0.44531-1.11523-1.07812
		c0-0.59961,0.47656-1.06055,1.28516-1.06055c0.46875,0,0.87695,0.19141,1.16211,0.42188l-0.30078,0.40137
		c-0.25391-0.19336-0.52344-0.33105-0.85352-0.33105c-0.46973,0-0.68555,0.25391-0.68555,0.53906
		c0,0.35352,0.4082,0.4834,0.83105,0.64551c0.53906,0.2002,1.13965,0.42285,1.13965,1.13184
		c0,0.60742-0.48535,1.11523-1.37012,1.11523C175.40625,24.77441,174.89844,24.55078,174.54395,24.25879z"/>
</g>
</svg>
