<?xml version="1.0" encoding="us-ascii" standalone="no"?><svg xmlns="http://www.w3.org/2000/svg" xmlns:xlink="http://www.w3.org/1999/xlink" contentStyleType="text/css" height="208px" preserveAspectRatio="none" style="width:1109px;height:208px;background:#FFFFFF;" version="1.1" viewBox="0 0 1109 208" width="1109px" zoomAndPan="magnify"><defs/><g><rect fill="#F1F1F1" height="36.4883" rx="12.5" ry="12.5" style="stroke:#181818;stroke-width:1.5;" width="54" x="546" y="85.2207"/><text fill="#000000" font-family="sans-serif" font-size="14" lengthAdjust="spacing" textLength="34" x="556" y="108.7559">Solid</text><rect fill="#F1F1F1" height="36.4883" rx="12.5" ry="12.5" style="stroke:#181818;stroke-width:1.5;" width="171" x="650" y="48.2441"/><text fill="#000000" font-family="sans-serif" font-size="14" lengthAdjust="spacing" textLength="151" x="660" y="71.7793">Daten Transformation</text><text fill="#000000" font-family="sans-serif" font-size="14" lengthAdjust="spacing" textLength="123" x="874" y="44.0469">SPARQL Endpunkt</text><path d="M821,66.4883 L831,66.4883 C846,66.4883 846,38.7559 861,38.7559 L871,38.7559 " fill="none" style="stroke:#181818;stroke-width:1.0;"/><text fill="#000000" font-family="sans-serif" font-size="14" lengthAdjust="spacing" textLength="97" x="874" y="62.5352">Versionierung</text><path d="M821,66.4883 L831,66.4883 C846,66.4883 846,57.2441 861,57.2441 L871,57.2441 " fill="none" style="stroke:#181818;stroke-width:1.0;"/><text fill="#000000" font-family="sans-serif" font-size="14" lengthAdjust="spacing" textLength="107" x="874" y="81.0234">Datenmigration</text><path d="M821,66.4883 L831,66.4883 C846,66.4883 846,75.7324 861,75.7324 L871,75.7324 " fill="none" style="stroke:#181818;stroke-width:1.0;"/><text fill="#000000" font-family="sans-serif" font-size="14" lengthAdjust="spacing" textLength="161" x="874" y="99.5117">Modellgetriebene Entw.</text><path d="M821,66.4883 L831,66.4883 C846,66.4883 846,94.2207 861,94.2207 L871,94.2207 " fill="none" style="stroke:#181818;stroke-width:1.0;"/><path d="M600,103.4648 L610,103.4648 C625,103.4648 625,66.4883 640,66.4883 L650,66.4883 " fill="none" style="stroke:#181818;stroke-width:1.0;"/><rect fill="#F1F1F1" height="36.4883" rx="12.5" ry="12.5" style="stroke:#181818;stroke-width:1.5;" width="203" x="650" y="122.1973"/><text fill="#000000" font-family="sans-serif" font-size="14" lengthAdjust="spacing" textLength="183" x="660" y="145.7324">Netzwerk Proxy / Mediator</text><text fill="#000000" font-family="sans-serif" font-size="14" lengthAdjust="spacing" textLength="56" x="906" y="118">Logging</text><path d="M853,140.4414 L863,140.4414 C878,140.4414 878,112.709 893,112.709 L903,112.709 " fill="none" style="stroke:#181818;stroke-width:1.0;"/><text fill="#000000" font-family="sans-serif" font-size="14" lengthAdjust="spacing" textLength="76" x="906" y="136.4883">Debugging</text><path d="M853,140.4414 L863,140.4414 C878,140.4414 878,131.1973 893,131.1973 L903,131.1973 " fill="none" style="stroke:#181818;stroke-width:1.0;"/><text fill="#000000" font-family="sans-serif" font-size="14" lengthAdjust="spacing" textLength="191" x="906" y="154.9766">Access Requests and Grants</text><path d="M853,140.4414 L863,140.4414 C878,140.4414 878,149.6855 893,149.6855 L903,149.6855 " fill="none" style="stroke:#181818;stroke-width:1.0;"/><text fill="#000000" font-family="sans-serif" font-size="14" lengthAdjust="spacing" textLength="62" x="906" y="173.4648">Protokoll</text><path d="M853,140.4414 L863,140.4414 C878,140.4414 878,168.1738 893,168.1738 L903,168.1738 " fill="none" style="stroke:#181818;stroke-width:1.0;"/><path d="M600,103.4648 L610,103.4648 C625,103.4648 625,140.4414 640,140.4414 L650,140.4414 " fill="none" style="stroke:#181818;stroke-width:1.0;"/><rect fill="#F1F1F1" height="36.4883" rx="12.5" ry="12.5" style="stroke:#181818;stroke-width:1.5;" width="96" x="400" y="28.7324"/><text fill="#000000" font-family="sans-serif" font-size="14" lengthAdjust="spacing" textLength="76" x="410" y="52.2676">Integration</text><text fill="#000000" font-family="sans-serif" font-size="14" lengthAdjust="spacing" textLength="131" x="216" y="24.5352">Integrationsmuster</text><path d="M400,46.9766 L390,46.9766 C375,46.9766 375,19.2441 360,19.2441 L350,19.2441 " fill="none" style="stroke:#181818;stroke-width:1.0;"/><text fill="#000000" font-family="sans-serif" font-size="14" lengthAdjust="spacing" textLength="93" x="250" y="52.2676">Datenhaltung</text><text fill="#000000" font-family="sans-serif" font-size="14" lengthAdjust="spacing" textLength="85" x="112" y="43.0234">Anzahl Pods</text><path d="M250,46.9766 L240,46.9766 C225,46.9766 225,37.7324 210,37.7324 L200,37.7324 " fill="none" style="stroke:#181818;stroke-width:1.0;"/><text fill="#000000" font-family="sans-serif" font-size="14" lengthAdjust="spacing" textLength="133" x="60" y="61.5117">Transitive anfragen</text><path d="M250,46.9766 L240,46.9766 C225,46.9766 225,56.2207 210,56.2207 L200,56.2207 " fill="none" style="stroke:#181818;stroke-width:1.0;"/><path d="M400,46.9766 L390,46.9766 C375,46.9766 375,46.9766 360,46.9766 L350,46.9766 " fill="none" style="stroke:#181818;stroke-width:1.0;"/><text fill="#000000" font-family="sans-serif" font-size="14" lengthAdjust="spacing" textLength="333" x="10" y="80">Erg&#228;nzende Authentisierung / Authentifizierung</text><path d="M400,46.9766 L390,46.9766 C375,46.9766 375,74.709 360,74.709 L350,74.709 " fill="none" style="stroke:#181818;stroke-width:1.0;"/><path d="M546,103.4648 L536,103.4648 C521,103.4648 521,46.9766 506,46.9766 L496,46.9766 " fill="none" style="stroke:#181818;stroke-width:1.0;"/><rect fill="#F1F1F1" height="36.4883" rx="12.5" ry="12.5" style="stroke:#181818;stroke-width:1.5;" width="103" x="393" y="93.9531"/><text fill="#000000" font-family="sans-serif" font-size="14" lengthAdjust="spacing" textLength="83" x="403" y="117.4883">Anwendung</text><text fill="#000000" font-family="sans-serif" font-size="14" lengthAdjust="spacing" textLength="134" x="206" y="108.2441">Datenschutzcockpit</text><path d="M393,112.1973 L383,112.1973 C368,112.1973 368,102.9531 353,102.9531 L343,102.9531 " fill="none" style="stroke:#181818;stroke-width:1.0;"/><text fill="#000000" font-family="sans-serif" font-size="14" lengthAdjust="spacing" textLength="93" x="247" y="126.7324">Kollaboration</text><path d="M393,112.1973 L383,112.1973 C368,112.1973 368,121.4414 353,121.4414 L343,121.4414 " fill="none" style="stroke:#181818;stroke-width:1.0;"/><path d="M546,103.4648 L536,103.4648 C521,103.4648 521,112.1973 506,112.1973 L496,112.1973 " fill="none" style="stroke:#181818;stroke-width:1.0;"/><rect fill="#F1F1F1" height="36.4883" rx="12.5" ry="12.5" style="stroke:#181818;stroke-width:1.5;" width="150" x="346" y="150.4414"/><text fill="#000000" font-family="sans-serif" font-size="14" lengthAdjust="spacing" textLength="130" x="356" y="173.9766">Benutzererfahrung</text><text fill="#000000" font-family="sans-serif" font-size="14" lengthAdjust="spacing" textLength="127" x="166" y="164.7324">Generischer Editor</text><path d="M346,168.6855 L336,168.6855 C321,168.6855 321,159.4414 306,159.4414 L296,159.4414 " fill="none" style="stroke:#181818;stroke-width:1.0;"/><text fill="#000000" font-family="sans-serif" font-size="14" lengthAdjust="spacing" textLength="184" x="109" y="183.2207">Semantisches UI Vocabular</text><path d="M346,168.6855 L336,168.6855 C321,168.6855 321,177.9297 306,177.9297 L296,177.9297 " fill="none" style="stroke:#181818;stroke-width:1.0;"/><path d="M546,103.4648 L536,103.4648 C521,103.4648 521,168.6855 506,168.6855 L496,168.6855 " fill="none" style="stroke:#181818;stroke-width:1.0;"/><!--SRC=[tLFBRben4DtxAsQNf9GaG1HLT1CII9G4Mfe7NLQ-ryF5mjUczXWIVgQRV4Pt_5ZdOg3ffhigKbUMpupFd9avFWiaFPNQgbBEn3kuTqOhKQ_3jIKil2JjB5_htru3eOo1q2UyAmdjH1gAje0AOgnZbt9YOEXKs20FNjgWISyHf1rxMQ05iRT_CkEKzz1AHxCw_Y3y29SchdvCdINlZC63LBFdYzMBNQ9L29r84xIaWqPVIJZQ8MEzt61LGnsxu7o-lP8TyacaPUxowKoJs4jIFo4j5-YdCFJkwPdv1gYq9BVfzvProCpjHWFdQ9a4FVgndFXTWIkqw3LNG0yzfNVlxx6KbLmE17YyXf7BPHQDzA9MIwhIiCREbwb6hLRZPyFEtPS-zAoQHJkb18xG1yv8NIPepL3gxUhMsC0fDAP0yXepbiKij3WKUxLrj7VKWTNFZ6LUUYnLUERTbhYDhWq1qcpsyZqoqouuq5QNqcXQlL38U4osI4B-CiJrmxuh2hsJZ5byTUtaEOO0TyYr0WNsYu8hdWY556T6SbFUWZZZXMwjAyxUqid_q9N_cUdUn1j3mocFWpxCatPe73QFcwt3HcF_AogUpWmQBMWUjvkdxLOBBdht3r0b78Zzgs4VWei-Hr0wS3DPh7ey43ToBk4kybHBRCFd6TgRxkqMu6RdsZjRyiR5pMZmE-7qf7wkYKjwrWAZWUZYM4P3_29trGTgm-F3PVs3w4l-JEokDYWK5uvv_NCRkhrV]--></g></svg>